<svg height="25" viewBox="0 0 512 512" width="25" class="fill-current text-grey-light mr-2" xmlns="http://www.w3.org/2000/svg"><g><path d="m467 130.667c4.142 0 7.5-3.357 7.5-7.5v-85.667c0-4.143-3.358-7.5-7.5-7.5h-52.5v-22.5c0-4.143-3.358-7.5-7.5-7.5h-317c-28.949 0-52.5 23.552-52.5 52.5v407c0 28.948 23.551 52.5 52.5 52.5h317c4.142 0 7.5-3.357 7.5-7.5v-30c0-1.989-.79-3.896-2.197-5.304-13.618-13.617-13.618-35.775 0-49.393 1.407-1.407 2.197-3.314 2.197-5.304v-52.499h52.5c4.142 0 7.5-3.357 7.5-7.5v-85.667c0-4.143-3.358-7.5-7.5-7.5h-52.5v-15h52.5c4.142 0 7.5-3.357 7.5-7.5v-85.666c0-4.143-3.358-7.5-7.5-7.5h-52.5v-15zm-7.5-85.667v70.667h-45v-70.667zm-60 332h-45v-362h45zm-105 60h-212v-7.5c0-4.136 3.364-7.5 7.5-7.5h204.5zm-212 15h212v15h-204.5c-4.136 0-7.5-3.364-7.5-7.5zm227-437h30v482h-30zm45 437h33.131c.788 5.255 2.403 10.305 4.78 15h-37.911zm33.131-15h-33.131v-15h37.912c-2.378 4.695-3.993 9.745-4.781 15zm-33.131-30v-15h45v15zm-302-354.5c0-18.109 12.905-33.262 30-36.747v361.781c-11.673 1.677-22.118 7.208-30 15.259zm0 407v-30c0-20.678 16.822-37.5 37.5-37.5 4.142 0 7.5-3.357 7.5-7.5v-369.5h197v362h-174.5c-4.142 0-7.5 3.357-7.5 7.5s3.358 7.5 7.5 7.5h174.5v15h-204.5c-12.407 0-22.5 10.094-22.5 22.5v30c0 12.406 10.093 22.5 22.5 22.5h204.5v15h-204.5c-20.678 0-37.5-16.822-37.5-37.5zm302 37.5v-15h45v15zm105-220.667v70.667h-45v-70.667zm0-115.666v70.666h-45v-70.666z"/></g></svg>