<svg id="Layer_1_1_" enable-background="new 0 0 64 64" height="512" viewBox="0 0 64 64" width="512" xmlns="http://www.w3.org/2000/svg"><path d="m10.796 7.948c1.89-.082 3.843-.165 5.348.533 1.122.521 2.009 1.187 2.634 1.98 1.063 1.347 1.383 3.054 1.721 4.861l.081.429c.099.521.216 1.04.323 1.561l-2.218.739.633 1.897 1.993-.664c.059.275.112.552.171.827.09.417.177.835.266 1.252l-2.063.688.633 1.897 1.844-.615.423 2.038c-.939.509-1.585 1.49-1.585 2.629 0 1.567 1.212 2.843 2.746 2.974l.719 3.462c-.873.525-1.465 1.473-1.465 2.564 0 1.521 1.142 2.768 2.611 2.961l.735 3.54c-.81.538-1.346 1.456-1.346 2.499 0 1.475 1.072 2.698 2.477 2.947l.211 1.016c.859 4.177 1.748 8.497 6.394 10.8 1.426.707 3.15 1.118 4.885 1.118 2.475 0 4.97-.837 6.65-2.848 2.108-2.523 2.608-6.388 1.336-10.339-1.933-6.003-3.917-12.637-3.004-15.377.537-1.611 2.342-2.355 2.401-2.379.427.255.903.387 1.38.387.789 0 1.572-.341 2.103-.995.46-.566.668-1.277.587-2.002s-.442-1.373-1.016-1.823l-11.324-8.898c-1.153-.906-2.843-.717-3.768.423-.459.567-.667 1.278-.585 2.003.073.652.382 1.233.859 1.673-2.024 2.941-2.643 7.124-1.852 12.786.591 4.225 2.277 8.141 3.909 11.928.582 1.351 1.184 2.748 1.719 4.124.215.553-.023 1.171-.555 1.437-.305.153-.644.163-.959.029-.313-.133-.542-.386-.634-.68l-8.205-29.61 1.36-.453.684 2.052 1.896-.633-2-6-1.896.633.684 2.051-1.262.421-.264-.954c-.208-.748-.398-1.518-.591-2.293-.331-1.336-.674-2.683-1.101-3.992l.85-.283.684 2.052 1.896-.633-2-6-1.896.633.684 2.051-.911.304c-.791-1.846-1.873-3.541-3.529-4.902-3.435-2.825-7.373-2.799-11.182-2.773l-1.115-.001h-4c-.553 0-1 .448-1 1v2h-2v2h7c.578 0 1.182-.025 1.796-.052zm12.204 20.052c0-.551.448-1 1-1s1 .449 1 1-.448 1-1 1-1-.449-1-1zm2 9c0-.551.448-1 1-1s1 .449 1 1-.448 1-1 1-1-.449-1-1zm2 9c0-.551.448-1 1-1s1 .449 1 1-.448 1-1 1-1-.449-1-1zm8.864-26.712c.138-.17.341-.258.546-.258.152 0 .305.048.432.148l11.325 8.898c.148.117.242.285.264.473.021.188-.033.372-.152.519-.241.297-.681.344-.978.11l-11.324-8.897c-.149-.117-.243-.285-.264-.473-.022-.188.032-.373.151-.52zm.15 3.839 8.226 6.725c-.806.578-1.743 1.497-2.188 2.831-.269.807-.358 1.802-.311 2.94-.564-1.526-2.021-2.623-3.741-2.623-1.321 0-2.484.651-3.213 1.64-.023-.143-.054-.284-.074-.427-.69-4.938-.264-8.58 1.301-11.086zm3.986 13.873c0 1.103-.897 2-2 2s-2-.897-2-2 .897-2 2-2 2 .897 2 2zm-3.544 3.689c.476.2.997.311 1.544.311 1.992 0 3.634-1.467 3.937-3.374.219 1.497.6 3.165 1.077 4.938-.594-.35-1.277-.564-2.014-.564-1.379 0-2.597.701-3.316 1.765-.428-1.015-.843-2.04-1.228-3.076zm2.544 5.311c0-1.103.897-2 2-2s2 .897 2 2-.897 2-2 2-2-.897-2-2zm2 7c1.103 0 2 .897 2 2s-.897 2-2 2-2-.897-2-2 .897-2 2-2zm-31-48.004h.128c3.775-.024 7.021-.046 9.898 2.318 2.817 2.317 3.749 6.074 4.65 9.708.197.794.393 1.581.604 2.346l9.014 32.525c.274.881.92 1.594 1.769 1.955.338.144.696.209 1.054.229-.07.298-.117.604-.117.923 0 2.206 1.794 4 4 4s4-1.794 4-4-1.794-4-4-4c-.194 0-.38.03-.567.057.011-.376-.048-.758-.179-1.133.242.047.491.076.746.076 1.562 0 2.904-.909 3.562-2.217.16.505.322 1.013.486 1.524 1.062 3.294.699 6.451-.967 8.444-2.2 2.634-6.336 2.596-9.111 1.22-3.771-1.87-4.49-5.364-5.323-9.411l-.197-.95c.919-.513 1.55-1.484 1.55-2.61 0-1.554-1.192-2.821-2.708-2.971l-.723-3.484c.855-.529 1.431-1.467 1.431-2.545 0-1.508-1.122-2.747-2.573-2.957l-.74-3.565c.792-.54 1.313-1.449 1.313-2.478 0-1.462-1.052-2.679-2.438-2.943l-.612-2.949c-.167-.806-.341-1.611-.514-2.417-.31-1.436-.618-2.873-.892-4.313l-.079-.423c-.368-1.966-.748-3.998-2.117-5.732-.821-1.041-1.953-1.901-3.362-2.555-1.946-.904-4.245-.806-6.276-.718-.238.01-.476.02-.71.029zm-4 .004h2v1h-2z"/><path d="m61 7h-6c-.553 0-1 .448-1 1v5.586l-1.707 1.707 1.414 1.414 2-2c.188-.187.293-.442.293-.707v-2h4v1.586l-1.707 1.707 1.414 1.414 2-2c.188-.187.293-.442.293-.707v-6c0-.552-.447-1-1-1zm-5 3v-1h4v1z"/><path d="m39.707 12.707c.188-.187.293-.442.293-.707v-3.323l4.371-1.749c.38-.152.629-.519.629-.928v-3c0-.332-.165-.642-.439-.828-.275-.187-.626-.224-.932-.101l-5 2c-.38.153-.629.52-.629.929v6.586l-1.707 1.707 1.414 1.414zm.293-7.03 3-1.2v.846l-3 1.2z"/><path d="m56 23h2v2h-2z"/><path d="m58 25h2v2h-2z"/><path d="m54 25h2v2h-2z"/><path d="m56 27h2v2h-2z"/><path d="m45 10h2v2h-2z"/><path d="m46 20h2v2h-2z"/></svg>